<?xml version="1.0" ?><svg width="40px" height="40px" fill='#000' viewBox="0 0 32 32" xmlns="http://www.w3.org/2000/svg"><defs><style>.cls-1{fill:#fff;opacity:0;}.cls-2{fill:none;stroke:#231f20;stroke-linecap:round;stroke-linejoin:round;stroke-width:2px;}</style></defs><title/><g data-name="Backpack 2" id="Backpack_2"><rect class="cls-1" height="32" width="32"/><rect class="cls-2" height="7" rx="1.18" ry="1.18" width="26" x="3" y="3"/><path class="cls-2" d="M25,10V27a2,2,0,0,1-2,2H9a2,2,0,0,1-2-2V10Z"/><path class="cls-2" d="M29,20v3a2,2,0,0,1-2,2H25V18h2A2,2,0,0,1,29,20Z"/><path class="cls-2" d="M7,18v7H5a2,2,0,0,1-2-2V20a2,2,0,0,1,2-2Z"/><line class="cls-2" x1="20" x2="20" y1="3" y2="16"/><line class="cls-2" x1="12" x2="12" y1="3" y2="16"/><rect class="cls-2" height="4" width="10" x="11" y="21"/></g></svg>