<svg class="svg-icon" style="width: 1em; height: 1em;vertical-align: middle;fill: currentColor;overflow: hidden;" viewBox="0 0 1024 1024" version="1.1" xmlns="http://www.w3.org/2000/svg"><path d="M554.666667 938.666667H384a42.666667 42.666667 0 0 1-42.666667-42.666667v-264.533333H256a42.666667 42.666667 0 0 1-42.666667-42.666667v-153.6a42.666667 42.666667 0 0 1 42.666667-42.666667h85.333333V320A246.186667 246.186667 0 0 1 597.333333 85.333333h128a42.666667 42.666667 0 0 1 42.666667 42.666667v153.6a42.666667 42.666667 0 0 1-42.666667 42.666667h-128v68.266666h128a42.666667 42.666667 0 0 1 34.133334 16.64 42.666667 42.666667 0 0 1 6.826666 37.546667l-42.666666 153.6a42.666667 42.666667 0 0 1-42.666667 31.146667H597.333333V896a42.666667 42.666667 0 0 1-42.666666 42.666667z m-128-85.333334h85.333333v-264.533333a42.666667 42.666667 0 0 1 42.666667-42.666667h95.573333l18.773333-68.266666H554.666667a42.666667 42.666667 0 0 1-42.666667-42.666667V320a85.333333 85.333333 0 0 1 85.333333-81.066667h85.333334V170.666667h-85.333334a161.28 161.28 0 0 0-170.666666 149.333333v115.2a42.666667 42.666667 0 0 1-42.666667 42.666667H298.666667v68.266666h85.333333a42.666667 42.666667 0 0 1 42.666667 42.666667z" fill="" /></svg>